<?xml version="1.0" encoding="utf-8"?><!-- Uploaded to: SVG Repo, www.svgrepo.com, Generator: SVG Repo Mixer Tools -->
<svg width="800px" height="800px" viewBox="0 0 36 36" xmlns="http://www.w3.org/2000/svg" xmlns:xlink="http://www.w3.org/1999/xlink" aria-hidden="true" role="img" class="iconify iconify--twemoji" preserveAspectRatio="xMidYMid meet"><path fill="#9A4E1C" d="M32 8h-6V4a4 4 0 0 0-4-4h-8a4 4 0 0 0-4 4v4H4a4 4 0 0 0-4 4v20a4 4 0 0 0 4 4h28a4 4 0 0 0 4-4V12a4 4 0 0 0-4-4zM12 6a2 2 0 0 1 2-2h8a2 2 0 0 1 2 2v2H12V6z"></path><path fill="#662113" d="M36 20a4 4 0 0 1-4 4H4a4 4 0 0 1-4-4v-8a4 4 0 0 1 4-4h28a4 4 0 0 1 4 4v8z"></path><path fill="#9A4E1C" d="M36 18a4 4 0 0 1-4 4H4a4 4 0 0 1-4-4v-6a4 4 0 0 1 4-4h28a4 4 0 0 1 4 4v6z"></path><path fill="#CCD6DD" d="M22 18a2 2 0 0 1-2 2h-4a2 2 0 0 1 0-4h4a2 2 0 0 1 2 2"></path></svg>